<?xml version="1.0" encoding="UTF-8"?>
<svg width="1800px" height="400px" viewBox="0 0 1800 400" version="1.1" xmlns="http://www.w3.org/2000/svg" xmlns:xlink="http://www.w3.org/1999/xlink">
    <!-- Generator: Sketch 50.2 (55047) - http://www.bohemiancoding.com/sketch -->
    <title>Modus-Logo-Long-Black</title>
    <desc>Created with Sketch.</desc>
    <defs></defs>
    <g id="Modus-Logo-Long-Black" stroke="none" stroke-width="1" fill="none" fill-rule="evenodd">
        <path d="M165.625,200 C165.625,208.347 164.061,216.324 161.218,223.665 C128.613,207.19 106.25,173.401 106.25,134.375 C106.25,122.567 108.303,111.241 112.06,100.724 C121.647,101.877 130.814,104.389 139.369,108.059 C136.158,116.211 134.375,125.082 134.375,134.375 C134.375,158.84 146.609,180.434 165.283,193.412 C165.5,195.58 165.625,197.774 165.625,200 Z M145.037,110.697 C177.642,127.173 200,160.974 200,200 C200,255.229 155.229,300 100,300 L100,271.875 C139.696,271.875 171.875,239.695 171.875,200 C171.875,175.529 159.636,153.927 140.955,140.947 C140.74,138.785 140.625,136.594 140.625,134.375 C140.625,126.025 142.192,118.043 145.037,110.697 Z M248.16,232.033 C259.939,255.646 284.318,271.875 312.5,271.875 L312.5,300 C271.358,300 236.025,275.151 220.674,239.646 C230.307,238.339 239.528,235.743 248.16,232.033 Z M241.347,189.806 C232.854,195.196 223.047,198.692 212.507,199.693 C212.662,148.685 251.001,106.668 300.444,100.726 C303.566,109.46 305.486,118.762 306.054,128.427 C272.764,131.388 246.001,157.033 241.347,189.806 Z M277.391,144.58 C285.887,139.183 295.698,135.677 306.246,134.678 C306.083,189.767 261.377,234.375 206.25,234.375 C204.36,234.375 202.483,234.317 200.619,234.214 C203.629,225.358 205.499,215.978 206.063,206.245 C206.125,206.245 206.187,206.25 206.25,206.25 C242.479,206.25 272.434,179.44 277.391,144.58 Z" id="Icon" fill="#1B1B1B"></path>
        <path d="M502.308,186.993 L475.244,250 L461.926,250 L435.005,186.993 L435.005,250 L412.667,250 L412.667,149.904 L442.881,149.904 L468.657,213.198 L494.576,149.904 L524.647,149.904 L524.647,250 L502.308,250 L502.308,186.993 Z M646.585,237.895 C635.863,248.049 622.665,253.125 606.988,253.125 C591.309,253.125 578.11,248.049 567.391,237.895 C556.669,227.74 551.309,215.11 551.309,200 C551.309,184.893 556.669,172.261 567.391,162.106 C578.11,151.952 591.309,146.875 606.988,146.875 C622.665,146.875 635.863,151.952 646.585,162.106 C657.304,172.261 662.667,184.893 662.667,200 C662.667,215.11 657.304,227.74 646.585,237.895 Z M638.544,200.074 C638.544,190.901 635.51,183.077 629.441,176.601 C623.373,170.126 615.913,166.889 607.063,166.889 C598.212,166.889 590.754,170.126 584.687,176.601 C578.617,183.077 575.584,190.901 575.584,200.074 C575.584,209.248 578.617,217.048 584.687,223.473 C590.754,229.899 598.212,233.111 607.063,233.111 C615.913,233.111 623.373,229.899 629.441,223.473 C635.51,217.048 638.544,209.248 638.544,200.074 Z M766.213,163.007 C776.069,171.742 781,183.892 781,199.451 C781,215.013 776.193,227.328 766.582,236.396 C756.971,245.467 742.307,250 722.591,250 L687.25,250 L687.25,149.904 L723.773,149.904 C742.207,149.904 756.354,154.272 766.213,163.007 Z M749.282,222.506 C754.949,217.351 757.784,209.857 757.784,200.023 C757.784,190.192 754.949,182.625 749.282,177.327 C743.611,172.028 734.912,169.38 723.183,169.38 L710.318,169.38 L710.318,230.238 L724.956,230.238 C735.505,230.238 743.611,227.661 749.282,222.506 Z M834.621,226.371 C838.438,231.003 843.574,233.316 850.032,233.316 C856.49,233.316 861.603,231.003 865.37,226.371 C869.136,221.742 871.021,215.417 871.021,207.397 L871.021,150 L893.917,150 L893.917,208.113 C893.917,222.626 889.808,233.771 881.588,241.551 C873.369,249.332 862.85,253.221 850.032,253.221 C837.212,253.221 826.671,249.308 818.402,241.479 C810.133,233.652 806,222.529 806,208.113 L806,150 L828.896,150 L828.896,207.397 C828.896,215.417 830.806,221.742 834.621,226.371 Z M950.012,169.536 C947.827,171.35 946.734,173.75 946.734,176.737 C946.734,179.727 948.068,182.101 950.74,183.865 C953.409,185.627 959.574,187.71 969.237,190.11 C978.897,192.512 986.398,196.112 991.739,200.911 C997.078,205.713 999.75,212.719 999.75,221.926 C999.75,231.137 996.327,238.605 989.481,244.337 C982.637,250.068 973.629,252.934 962.465,252.934 C946.346,252.934 931.829,246.909 918.917,234.858 L932.462,218.105 C943.434,227.805 953.58,232.653 962.902,232.653 C967.076,232.653 970.353,231.75 972.732,229.936 C975.111,228.124 976.301,225.673 976.301,222.588 C976.301,219.502 975.038,217.054 972.514,215.239 C969.988,213.429 964.989,211.592 957.513,209.729 C945.665,206.888 936.999,203.189 931.516,198.634 C926.028,194.078 923.286,186.927 923.286,177.178 C923.286,167.431 926.757,159.91 933.699,154.62 C940.641,149.33 949.307,146.684 959.698,146.684 C966.493,146.684 973.291,147.86 980.088,150.211 C986.884,152.563 992.807,155.894 997.856,160.205 L986.351,176.958 C977.514,170.198 968.386,166.817 958.969,166.817 C955.183,166.817 952.196,167.724 950.012,169.536 Z M1130.33,231.669 C1142,231.669 1151.53,227.212 1158.93,218.297 L1174.14,233.433 C1162.07,246.563 1147.85,253.125 1131.48,253.125 C1115.1,253.125 1101.61,248.128 1091.02,238.135 C1080.42,228.143 1075.12,215.529 1075.12,200.294 C1075.12,185.061 1080.52,172.349 1091.32,162.159 C1102.12,151.97 1115.33,146.875 1130.94,146.875 C1148.38,146.875 1162.99,153.293 1174.75,166.126 L1160,182.292 C1152.49,173.279 1143.16,168.772 1132.01,168.772 C1123.08,168.772 1115.45,171.589 1109.12,177.222 C1102.78,182.857 1099.61,190.448 1099.61,200 C1099.61,209.553 1102.6,217.22 1108.58,222.999 C1114.57,228.78 1121.82,231.669 1130.33,231.669 Z M1280.94,183.127 C1280.94,199.165 1274.59,209.524 1261.9,214.2 L1287.24,250 L1259.75,250 L1237.55,218.066 L1222.09,218.066 L1222.09,250 L1199.75,250 L1199.75,149.904 L1237.7,149.904 C1253.26,149.904 1264.35,152.531 1270.99,157.78 C1277.63,163.032 1280.94,171.48 1280.94,183.127 Z M1254.02,193.75 C1256.79,191.269 1258.17,188.593 1258.17,183.198 C1258.17,177.806 1256.74,174.105 1253.88,172.101 C1251.01,170.096 1246,169.093 1238.84,169.093 L1222.09,169.093 L1222.09,197.474 L1238.41,197.474 C1246.05,197.474 1251.25,196.233 1254.02,193.75 Z M1381,149.904 L1381,169.81 L1328.76,169.81 L1328.76,190.43 L1381,190.43 L1381,209.475 L1328.76,209.475 L1328.76,230.238 L1381,230.238 L1381,250 L1306.42,250 L1306.42,149.904 L1381,149.904 Z M1484.09,250 L1474.79,228.377 L1432.83,228.377 L1423.52,250 L1399.75,250 L1443,149.904 L1464.62,149.904 L1507.86,250 L1484.09,250 Z M1453.88,179.689 L1441.28,208.759 L1466.34,208.759 L1453.88,179.689 Z M1565.15,169.236 L1565.15,250 L1542.81,250 L1542.81,169.236 L1514.46,169.236 L1514.46,149.904 L1593.5,149.904 L1593.5,169.236 L1565.15,169.236 Z M1693.5,149.904 L1693.5,169.81 L1641.26,169.81 L1641.26,190.43 L1693.5,190.43 L1693.5,209.475 L1641.26,209.475 L1641.26,230.238 L1693.5,230.238 L1693.5,250 L1618.92,250 L1618.92,149.904 L1693.5,149.904 Z" id="Modus-Create" fill="#1B1B1B"></path>
    </g>
</svg>